<svg width="14" height="31" viewBox="0 0 14 31" fill="none" xmlns="http://www.w3.org/2000/svg">
<path d="M9.35767 31H3.74457V15.5H0V10.1583L3.74457 10.1565L3.73848 7.00951C3.73848 2.65159 4.8804 0 9.84096 0H13.971V5.34278H11.3899C9.45813 5.34278 9.36522 6.0892 9.36522 7.48263L9.35756 10.1565H14L13.4527 15.4982L9.36142 15.5L9.35767 31Z" fill="black"/>
<path d="M9.35767 31H3.74457V15.5H0V10.1583L3.74457 10.1565L3.73848 7.00951C3.73848 2.65159 4.8804 0 9.84096 0H13.971V5.34278H11.3899C9.45813 5.34278 9.36522 6.0892 9.36522 7.48263L9.35756 10.1565H14L13.4527 15.4982L9.36142 15.5L9.35767 31Z" fill="white"/>
</svg>
