<svg width="23" height="51" viewBox="0 0 23 51" fill="none" xmlns="http://www.w3.org/2000/svg">
<path d="M15.3733 51H6.15179V25.5H0V16.712L6.15179 16.7091L6.14179 11.5318C6.14179 4.36229 8.0178 0 16.1673 0H22.9523V8.78973H18.7119C15.5384 8.78973 15.3857 10.0177 15.3857 12.3101L15.3731 16.7091H23L22.1009 25.4971L15.3795 25.5L15.3733 51Z" fill="black"/>
<path d="M15.3733 51H6.15179V25.5H0V16.712L6.15179 16.7091L6.14179 11.5318C6.14179 4.36229 8.0178 0 16.1673 0H22.9523V8.78973H18.7119C15.5384 8.78973 15.3857 10.0177 15.3857 12.3101L15.3731 16.7091H23L22.1009 25.4971L15.3795 25.5L15.3733 51Z" fill="#3B5998"/>
</svg>
