<svg width="22" height="22" viewBox="0 0 22 22" fill="none" xmlns="http://www.w3.org/2000/svg">
<path d="M15.9287 0H6.07107C2.72349 0 0 2.72362 0 6.0712V15.9288C0 19.2765 2.72349 22 6.07107 22H15.9287C19.2765 22 22 19.2764 22 15.9288V6.0712C22.0001 2.72362 19.2765 0 15.9287 0ZM20.0482 15.9288C20.0482 18.2002 18.2002 20.0481 15.9288 20.0481H6.07107C3.79979 20.0482 1.95195 18.2002 1.95195 15.9288V6.0712C1.95195 3.79992 3.79979 1.95195 6.07107 1.95195H15.9287C18.2001 1.95195 20.0481 3.79992 20.0481 6.0712L20.0482 15.9288Z" fill="#501E0C"/>
<path d="M11 5.33141C7.87416 5.33141 5.33116 7.87441 5.33116 11.0003C5.33116 14.126 7.87416 16.6688 11 16.6688C14.1259 16.6688 16.6688 14.126 16.6688 11.0003C16.6688 7.87441 14.1259 5.33141 11 5.33141ZM11 14.7168C8.95059 14.7168 7.28311 13.0495 7.28311 11.0001C7.28311 8.95058 8.95046 7.28323 11 7.28323C13.0495 7.28323 14.7169 8.95058 14.7169 11.0001C14.7169 13.0495 13.0494 14.7168 11 14.7168Z" fill="#501E0C"/>
<path d="M16.9066 3.67629C16.5305 3.67629 16.1611 3.82855 15.8955 4.09531C15.6286 4.36078 15.4752 4.73034 15.4752 5.10772C15.4752 5.48393 15.6287 5.85336 15.8955 6.12013C16.1609 6.3856 16.5305 6.53915 16.9066 6.53915C17.284 6.53915 17.6522 6.3856 17.919 6.12013C18.1858 5.85336 18.338 5.4838 18.338 5.10772C18.338 4.73034 18.1858 4.36078 17.919 4.09531C17.6535 3.82855 17.284 3.67629 16.9066 3.67629Z" fill="#501E0C"/>
</svg>
