<svg width="23" height="24" viewBox="0 0 23 24" fill="none" xmlns="http://www.w3.org/2000/svg">
<path d="M20.1926 2.33703C19.5926 1.78703 17.1926 0.0370303 11.8226 0.0170303C11.8226 0.0170303 5.49262 -0.36297 2.40262 2.46703C0.682621 4.17703 0.0826216 6.69703 0.0126216 9.81703C-0.0473784 12.927 -0.117378 18.767 5.51262 20.357V22.777C5.51262 22.777 5.47262 23.747 6.11262 23.947C6.90262 24.197 7.35262 23.447 8.10262 22.647L9.50262 21.067C13.3526 21.387 16.3026 20.647 16.6426 20.537C17.4226 20.287 21.8226 19.727 22.5426 13.887C23.2826 7.85703 22.1826 4.05703 20.2026 2.33703H20.1926ZM20.8526 13.447C20.2526 18.327 16.6826 18.637 16.0226 18.847C15.7426 18.937 13.1426 19.577 9.87262 19.367C9.87262 19.367 7.43262 22.307 6.67262 23.067C6.55262 23.197 6.41262 23.237 6.32262 23.217C6.19262 23.187 6.15262 23.027 6.16262 22.807L6.18262 18.787C1.41262 17.467 1.69262 12.487 1.74262 9.88703C1.80262 7.28703 2.29262 5.15703 3.74262 3.71703C6.35262 1.35703 11.7326 1.71703 11.7326 1.71703C16.2726 1.72703 18.4426 3.09703 18.9526 3.55703C20.6226 4.98703 21.4826 8.41703 20.8526 13.457" fill="#501E0C"/>
<path d="M14.0325 9.97744C13.9546 9.97748 13.8798 9.94725 13.8238 9.89314C13.7678 9.83902 13.7351 9.76526 13.7325 9.68744C13.6725 8.65744 13.1925 8.15744 12.2025 8.10744C12.1624 8.10547 12.1232 8.09563 12.0869 8.07848C12.0507 8.06133 12.0181 8.03721 11.9912 8.0075C11.9643 7.97779 11.9435 7.94306 11.93 7.9053C11.9164 7.86754 11.9105 7.82749 11.9125 7.78744C11.9144 7.74739 11.9243 7.70811 11.9414 7.67186C11.9586 7.63561 11.9827 7.60309 12.0124 7.57616C12.0421 7.54924 12.0769 7.52842 12.1146 7.51492C12.1524 7.50141 12.1924 7.49547 12.2325 7.49744C13.5325 7.56744 14.2625 8.31744 14.3325 9.65744C14.3352 9.69766 14.3298 9.73801 14.3165 9.77608C14.3033 9.81415 14.2825 9.84917 14.2555 9.87904C14.2284 9.90891 14.1956 9.93301 14.159 9.94992C14.1224 9.96683 14.0828 9.97619 14.0425 9.97744H14.0325Z" fill="#501E0C"/>
<path d="M15.5818 10.4966C15.5023 10.4966 15.426 10.465 15.3697 10.4088C15.3134 10.3525 15.2818 10.2762 15.2818 10.1966C15.3111 9.72986 15.2466 9.26194 15.092 8.82053C14.9374 8.37911 14.696 7.97316 14.3818 7.62664C13.6856 6.90758 12.7326 6.49401 11.7318 6.47664C11.6523 6.47134 11.5781 6.43464 11.5256 6.37463C11.4731 6.31462 11.4465 6.23621 11.4518 6.15664C11.4571 6.07708 11.4938 6.00288 11.5538 5.95037C11.6139 5.89786 11.6923 5.87134 11.7718 5.87664C13.0718 5.96664 14.0918 6.41664 14.8218 7.21664C15.5518 8.01664 15.9218 9.01664 15.8918 10.2066C15.8918 10.246 15.8841 10.2851 15.869 10.3214C15.8539 10.3578 15.8318 10.3909 15.804 10.4188C15.7761 10.4466 15.743 10.4687 15.7066 10.4838C15.6702 10.4989 15.6312 10.5066 15.5918 10.5066" fill="#501E0C"/>
<path d="M17.1819 11.1269C17.1023 11.1269 17.026 11.0953 16.9698 11.039C16.9135 10.9827 16.8819 10.9064 16.8819 10.8269C16.8619 8.96687 16.3319 7.54687 15.2419 6.48687C14.7084 5.96885 14.0776 5.56162 13.3859 5.28872C12.6942 5.01581 11.9553 4.88264 11.2119 4.89688C11.1323 4.89688 11.056 4.86527 10.9998 4.80901C10.9435 4.75275 10.9119 4.67644 10.9119 4.59687C10.9119 4.42687 11.0519 4.29688 11.2119 4.29688C12.9819 4.29688 14.4819 4.89688 15.6719 6.05687C16.2808 6.68591 16.7554 7.43234 17.0665 8.25068C17.3777 9.06903 17.519 9.94215 17.4819 10.8169C17.4819 10.8964 17.4503 10.9727 17.394 11.029C17.3378 11.0853 17.2614 11.1169 17.1819 11.1169V11.1269ZM12.2819 13.7369C12.2819 13.7369 12.7019 13.7769 12.9319 13.4969L13.3819 12.9269C13.5919 12.6469 14.1119 12.4769 14.6219 12.7569C15.3868 13.1993 16.1068 13.7151 16.7719 14.2969C17.1019 14.5769 17.1819 14.9869 16.9519 15.4169V15.4269C16.7219 15.8369 16.4119 16.2269 16.0219 16.5769C15.7178 16.8517 15.3307 17.0171 14.9219 17.0469C14.7919 17.0469 14.6619 17.0269 14.5219 16.9869V16.9769C14.0419 16.8369 13.2419 16.4969 11.9219 15.7769C10.7676 15.1378 9.69909 14.3549 8.74188 13.4469L8.71188 13.4169L8.68188 13.3869L8.64188 13.3569L8.61188 13.3169C7.70623 12.3637 6.92654 11.2984 6.29188 10.1469C5.80229 9.32444 5.4001 8.45303 5.09188 7.54688L5.07188 7.53688C5.01558 7.36277 4.9985 7.17836 5.02188 6.99688C5.06188 6.68688 5.21188 6.36688 5.48188 6.04688C5.84188 5.64688 6.22188 5.34688 6.63188 5.10688H6.64188C7.07188 4.87688 7.48188 4.95687 7.76188 5.28687C8.34424 5.95149 8.86005 6.6716 9.30188 7.43688C9.59188 7.94688 9.40188 8.46687 9.13188 8.68687L8.57188 9.13688C8.28188 9.35687 8.32188 9.78687 8.32188 9.78687C8.32188 9.78687 9.15188 12.9469 12.2719 13.7469" fill="#501E0C"/>
</svg>
