<svg width="24" height="19" viewBox="0 0 24 19" fill="none" xmlns="http://www.w3.org/2000/svg">
<path fill-rule="evenodd" clip-rule="evenodd" d="M22.8 1.425C23.5034 2.24543 23.7517 4.10227 23.7517 4.10227C23.7517 4.10227 24 6.30455 24 8.50679V10.5364C24 12.6954 23.7517 14.8977 23.7517 14.8977C23.7517 14.8977 23.5035 16.7546 22.8 17.575C21.9343 18.5606 20.9562 18.6479 20.471 18.6913C20.446 18.6935 20.4223 18.6956 20.4 18.6977C17.0483 19 12 19 12 19C12 19 5.7517 18.9568 3.8483 18.741C3.74715 18.7166 3.6226 18.6984 3.48097 18.6776C2.86934 18.588 1.93919 18.4516 1.2 17.5751C0.496594 16.7546 0.248297 14.8978 0.248297 14.8978C0.248297 14.8978 0 12.7387 0 10.5364V8.50684C0 6.30455 0.248297 4.10227 0.248297 4.10227C0.248297 4.10227 0.455156 2.24548 1.2 1.425C2.06575 0.439431 3.04375 0.35207 3.52899 0.308724C3.554 0.306491 3.5777 0.304374 3.6 0.302257C6.9517 0.0431936 12 0 12 0C12 0 17.0483 0.0431936 20.4 0.302257C20.4346 0.305537 20.4725 0.308568 20.5134 0.311841C21.0115 0.351675 21.9588 0.42742 22.8 1.425ZM9.10345 14.5091V5.13862L16.9655 9.93184L9.10345 14.5091Z" fill="#501E0C"/>
</svg>
