<svg width="25" height="48" viewBox="0 0 25 48" fill="none" xmlns="http://www.w3.org/2000/svg">
<path d="M13 32C7.48632 32 3 27.41 3 21.77V10.234C3 4.591 7.48632 0 13 0C18.5137 0 23 4.591 23 10.235V21.77C23 27.41 18.5137 32 13 32ZM13 2C8.55945 2 4.94761 5.694 4.94761 10.235V21.77C4.94761 26.307 8.55945 30 13 30C17.4405 30 21.0524 26.307 21.0524 21.77V10.234C21.0524 5.694 17.4405 2 13 2Z" fill="white" fill-opacity="0.812"/>
<path d="M12.9981 12.6411C14.5158 12.6411 15.7462 11.3543 15.7462 9.76707C15.7462 8.1798 14.5158 6.89307 12.9981 6.89307C11.4804 6.89307 10.25 8.1798 10.25 9.76707C10.25 11.3543 11.4804 12.6411 12.9981 12.6411Z" fill="white" fill-opacity="0.812"/>
<g opacity="0.7">
<mask id="mask0" mask-type="alpha" maskUnits="userSpaceOnUse" x="0" y="38" width="25" height="10">
<rect y="38" width="25" height="10" fill="#C4C4C4"/>
</mask>
<g mask="url(#mask0)">
<rect y="1.17851" width="8.82106" height="8.72749" transform="matrix(0.695421 0.718602 -0.695421 0.718602 13.7063 30.8143)" stroke="white" stroke-width="1.64001"/>
</g>
</g>
</svg>
