<svg width="201" height="99" viewBox="0 0 201 99" fill="none" xmlns="http://www.w3.org/2000/svg">
<path d="M7.16799 75.563C7.23731 75.563 7.26567 75.704 7.24676 75.9795C7.22507 76.2885 7.17228 76.5944 7.08921 76.8925C7.011 77.2046 6.90554 77.5091 6.77411 77.8022C6.64177 78.0809 6.49682 78.2187 6.33612 78.2187C6.17541 78.2187 5.91073 78.2187 5.5326 78.2187C5.15448 78.2187 4.75745 78.2187 4.34466 78.2187H3.20084C3.00721 78.2109 2.81328 78.2195 2.62105 78.2443C2.55511 78.2713 2.49591 78.3129 2.44774 78.366C2.39718 78.4101 2.3646 78.4718 2.35636 78.539C2.37527 78.917 2.37842 79.3687 2.35636 79.8941C2.34547 80.3462 2.35915 80.7986 2.39732 81.2491C2.39732 81.4638 2.52021 81.5695 2.76599 81.5695L3.3962 81.5407C3.81349 81.5235 4.23145 81.5352 4.64716 81.5759C5.14599 81.6255 5.63759 81.733 6.11239 81.8962C6.60462 82.0615 7.05156 82.3425 7.41692 82.7163C7.53981 82.8605 7.68161 83.0206 7.83916 83.2C8.00828 83.3932 8.1631 83.5987 8.30236 83.8151C8.44942 84.0474 8.57295 84.2943 8.67103 84.5519C8.76569 84.8068 8.82302 85.0745 8.84119 85.3463C8.86009 85.6859 8.87585 85.9614 8.89476 86.176C8.91366 86.3907 8.91996 86.5925 8.91996 86.7815V88.2166C8.91349 88.7339 8.83823 89.2479 8.69624 89.7447C8.54584 90.3026 8.30056 90.8295 7.9715 91.3016C7.62074 91.7996 7.16546 92.2121 6.63861 92.5093C6.01822 92.8461 5.32181 93.0118 4.6188 92.9898H3.76172C3.33003 92.9898 2.87313 92.9898 2.39102 92.9898C1.90891 92.9898 1.44571 92.9898 1.05813 92.9898H0.346C0.115974 92.9898 0.00253802 92.8104 0.00253802 92.4516V91.6603C0.00253802 91.1862 0.00253802 90.5712 0.00253802 89.8088C0.00253802 89.0463 0.00253802 88.1878 0.00253802 87.2204C0.00253802 86.2529 0.00253802 85.2727 0.00253802 84.27C0.00253802 83.2673 0.00253802 82.2839 0.00253802 81.3196V76.7707C-0.00474998 76.4715 0.0036629 76.1721 0.0277445 75.8738C0.0580033 75.8209 0.0987894 75.7751 0.147485 75.7392C0.198272 75.6925 0.256997 75.6556 0.320791 75.6303C0.53191 75.6303 0.843862 75.6303 1.2661 75.6303C1.68834 75.6303 2.13264 75.6303 2.6242 75.6303H4.143C4.65977 75.6303 5.13872 75.6303 5.57987 75.6303C6.02101 75.6303 6.38968 75.6303 6.68903 75.6303L7.16799 75.563ZM4.13354 84.2123H3.50334C3.31743 84.2123 3.10315 84.2123 2.85737 84.2412C2.61159 84.27 2.51391 84.3661 2.51391 84.616C2.51391 84.7601 2.51391 85.058 2.51391 85.5129C2.51391 85.9678 2.53282 86.474 2.54227 87.0154C2.55172 87.5567 2.54227 88.1109 2.56748 88.6651C2.59269 89.2193 2.56748 89.6774 2.56748 90.0362C2.5639 90.099 2.57996 90.1613 2.61336 90.2143C2.64675 90.2672 2.69577 90.308 2.75339 90.3309C2.80975 90.3673 2.87144 90.3943 2.93615 90.411C3.11261 90.427 3.28907 90.4366 3.46552 90.4366H4.38878C4.56702 90.4425 4.74455 90.4111 4.91039 90.3444C5.07624 90.2777 5.22687 90.1772 5.35299 90.049C5.61396 89.7801 5.81963 89.461 5.95799 89.1104C6.10884 88.7538 6.21472 88.3792 6.2731 87.9956C6.31761 87.7029 6.34392 87.4076 6.35187 87.1115C6.34253 86.8685 6.31621 86.6266 6.2731 86.3875C6.21479 86.0532 6.10863 85.7294 5.95799 85.4264C5.79147 85.1022 5.55954 84.8173 5.27737 84.5903C4.9465 84.3361 4.53835 84.208 4.12409 84.2283L4.13354 84.2123ZM15.931 81.1819C16.0706 80.9878 16.1771 80.7712 16.2461 80.5412C16.4226 80.1141 16.6158 79.6218 16.8259 79.0644L17.4561 77.3762C17.6672 76.8124 17.8279 76.3959 17.9319 76.1268C17.956 76.0464 17.996 75.9718 18.0494 75.9076C18.1028 75.8434 18.1686 75.791 18.2426 75.7535C18.3166 75.716 18.3974 75.6943 18.48 75.6896C18.5625 75.685 18.6452 75.6975 18.7228 75.7264L19.687 75.941L20.6513 76.1557C20.8781 76.1909 20.9412 76.3062 20.834 76.5048C20.7836 76.6106 20.6198 77.0174 20.3456 77.7254L19.3436 80.3394C18.9466 81.3773 18.5159 82.5038 18.0517 83.719C17.5874 84.9342 17.1473 86.097 16.7314 87.2075C16.3112 88.3159 15.9457 89.2951 15.6348 90.1451C15.3239 90.9951 15.1138 91.5717 15.0046 91.875C14.93 92.1553 14.805 92.4193 14.6359 92.6534C14.5943 92.694 14.545 92.7257 14.491 92.7463C14.4381 92.773 14.3799 92.7872 14.3208 92.788C14.0057 92.7175 13.6906 92.6534 13.3566 92.599C13.0314 92.5465 12.7094 92.4748 12.3924 92.3843C12.3197 92.3633 12.2542 92.3223 12.203 92.2657C12.1518 92.2092 12.1171 92.1394 12.1025 92.064C12.0521 91.8937 12.0521 91.7121 12.1025 91.5418C12.1561 91.3784 12.2412 91.1254 12.3546 90.7762C12.468 90.427 12.6035 90.0298 12.7642 89.5813C12.9249 89.1328 13.0793 88.6587 13.2652 88.1462L13.7852 86.7014L14.2484 85.3592C14.387 84.9491 14.5004 84.6064 14.5887 84.3405C14.5004 84.1963 14.3429 83.9336 14.116 83.5492C13.8891 83.1648 13.6276 82.7195 13.3377 82.2198C13.0478 81.7201 12.7422 81.1979 12.4271 80.6501C12.112 80.1023 11.8158 79.6058 11.5416 79.1477L10.8705 78.0233C10.7737 77.8714 10.6853 77.7142 10.6058 77.5524C10.4293 77.232 10.3568 77.0238 10.382 76.9341C10.4072 76.8444 10.5711 76.6938 10.8705 76.4792C11.0816 76.3351 11.2864 76.2005 11.5007 76.0756C11.7149 75.9506 11.8977 75.8161 12.0931 75.6751C12.3724 75.4957 12.6277 75.5855 12.8588 75.9442C12.9092 76.0307 13.0163 76.2197 13.1739 76.5048C13.3314 76.7899 13.5236 77.1455 13.741 77.5267C13.9585 77.9079 14.1948 78.3308 14.4406 78.7601C14.6864 79.1893 14.9195 79.5834 15.1401 79.9389C15.3607 80.2945 15.5403 80.5956 15.6821 80.8391C15.8239 81.0826 15.8837 81.1979 15.9216 81.1979L15.931 81.1819ZM21.6281 75.7072C21.8782 75.6802 22.1296 75.6674 22.3812 75.6687C22.8129 75.6687 23.3265 75.6687 23.9252 75.6687C24.5239 75.6687 25.1604 75.6687 25.8379 75.6687C26.5153 75.6687 27.1518 75.6687 27.7505 75.6687C28.3492 75.6687 28.8597 75.6687 29.2819 75.6687H30.0224C30.1881 75.6612 30.3513 75.7109 30.4856 75.8097C30.5316 75.8771 30.5634 75.9534 30.5791 76.0339C30.5948 76.1143 30.5941 76.1972 30.577 76.2774C30.5613 76.5056 30.5613 76.7347 30.577 76.9629C30.5952 77.1906 30.5868 77.4196 30.5518 77.6453C30.5426 77.7503 30.5124 77.8524 30.4631 77.9451C30.4138 78.0379 30.3463 78.1195 30.2649 78.1849C30.1835 78.2502 30.0898 78.298 29.9896 78.3253C29.8894 78.3526 29.7848 78.3588 29.6821 78.3436C29.3432 78.3226 29.0033 78.3226 28.6643 78.3436C28.3492 78.3724 27.9995 78.3853 27.6497 78.3853C27.4543 78.3853 27.3693 78.4846 27.385 78.68V92.4164C27.3902 92.4563 27.3863 92.4969 27.3735 92.5351C27.3608 92.5732 27.3396 92.6079 27.3116 92.6364C27.2835 92.6649 27.2494 92.6864 27.2119 92.6994C27.1744 92.7123 27.1344 92.7163 27.0951 92.7111C26.7958 92.7303 26.5027 92.7335 26.2097 92.7111C25.9166 92.6887 25.6267 92.7111 25.3274 92.7111C24.9209 92.7463 24.7192 92.5509 24.7192 92.1216C24.7192 91.6924 24.6877 91.1029 24.6814 90.2989C24.6751 89.4948 24.6625 88.6075 24.6531 87.6432C24.6436 86.679 24.6531 85.6923 24.6531 84.6896C24.6531 83.687 24.6531 82.7676 24.6531 81.9411C24.6531 81.1146 24.6531 80.1664 24.6531 79.1092C24.6542 78.9656 24.6447 78.8221 24.6247 78.68C24.6099 78.5805 24.5888 78.482 24.5617 78.3853C24.5333 78.2956 24.4924 78.2507 24.442 78.2507L24.0323 78.2667C23.8118 78.2667 23.5628 78.2667 23.2792 78.2667H21.6627C21.6281 78.2667 21.5903 78.2251 21.543 78.145C21.5108 78.0922 21.4893 78.0334 21.48 77.972C21.48 77.8471 21.48 77.6677 21.48 77.4338C21.48 77.2 21.48 76.9661 21.48 76.7227C21.4784 76.4988 21.4921 76.2751 21.5209 76.0532C21.5289 75.9371 21.5622 75.8244 21.6186 75.7232L21.6281 75.7072ZM35.9842 84.9651C36.0567 84.8018 36.1922 84.4686 36.3938 83.9593C36.5955 83.4499 36.8255 82.8637 37.0807 82.2006C37.336 81.5375 37.6038 80.8391 37.8843 80.0959C38.1647 79.3527 38.4262 78.6736 38.6626 78.0553C38.8989 77.437 39.0974 76.9149 39.2581 76.4856C39.4188 76.0564 39.5039 75.8257 39.5197 75.7905C39.5354 75.7552 39.6425 75.7008 39.8348 75.6816C40.027 75.6623 40.2507 75.6559 40.5059 75.6559C40.7612 75.6559 41.0132 75.6559 41.259 75.6559C41.4352 75.671 41.6122 75.671 41.7884 75.6559C41.896 75.6318 42.0086 75.6501 42.1035 75.7072C42.1436 75.7491 42.1741 75.7996 42.1926 75.8551C42.2111 75.9105 42.2173 75.9694 42.2106 76.0275V92.4996C42.2106 92.5701 42.1224 92.6214 41.9459 92.647C41.7371 92.6762 41.5265 92.6901 41.3157 92.6887C41.0794 92.6887 40.8494 92.6887 40.6288 92.6726H40.194C39.9135 92.6566 39.7591 92.5797 39.7339 92.4452C39.6929 92.1651 39.6708 91.8826 39.6678 91.5995C39.6678 91.0293 39.6678 90.3694 39.6678 89.6294C39.6678 88.8894 39.652 88.1269 39.652 87.3485C39.652 86.5701 39.652 85.8108 39.652 85.0676C39.652 84.3244 39.652 83.6677 39.652 83.0943C39.6492 83.0441 39.6397 82.9945 39.6236 82.947C39.6236 82.8861 39.5795 82.8541 39.5449 82.8541C39.5102 82.8541 39.4629 82.931 39.3999 83.0815C39.3369 83.2321 39.2896 83.3634 39.255 83.4723C39.2203 83.5813 39.0754 83.9368 38.8737 84.4334C38.672 84.9299 38.4294 85.5193 38.149 86.1921C37.8685 86.8648 37.566 87.5727 37.2509 88.3223C36.9358 89.072 36.6396 89.7671 36.3655 90.4014C36.0913 91.0357 35.855 91.5706 35.6533 92.0031C35.5654 92.2471 35.4363 92.4736 35.2721 92.6726C35.1446 92.7183 35.0102 92.7411 34.875 92.7399C34.6828 92.7399 34.4812 92.7399 34.2669 92.7399C34.0526 92.7399 33.8604 92.7175 33.6745 92.7015C33.5547 92.6921 33.4357 92.6739 33.3184 92.647C33.1912 92.6242 33.0771 92.5536 32.9988 92.4491C32.9206 92.3446 32.8839 92.2139 32.8962 92.0832C32.8962 91.9583 32.8962 91.6443 32.8962 91.1446C32.8962 90.6449 32.8962 90.0266 32.8962 89.293C32.8962 88.5594 32.8962 87.7425 32.8804 86.8392C32.8647 85.9358 32.8804 85.0132 32.8804 84.0746C32.8804 83.136 32.8804 82.2198 32.8804 81.326C32.8804 80.4323 32.8804 79.6314 32.8804 78.9234C32.8804 78.2155 32.8804 77.6421 32.8804 77.1679C32.8804 76.6938 32.8804 76.4344 32.8804 76.3639C32.8914 76.1698 32.9657 75.9849 33.0915 75.8385C33.2457 75.7218 33.4293 75.6518 33.6209 75.6367C33.8667 75.6207 34.1251 75.6111 34.3992 75.6111C34.6596 75.6108 34.9197 75.629 35.1775 75.6655C35.2311 75.6815 35.2878 75.7488 35.3477 75.8642C35.4078 75.959 35.4314 76.0731 35.4139 76.1845V77.0014C35.4139 77.4595 35.4139 78.004 35.4139 78.6383C35.4139 79.2726 35.4139 79.9614 35.4139 80.7046V85.8941C35.4139 86.0735 35.4391 86.1632 35.4926 86.1632C35.5462 86.1632 35.6344 86.0223 35.7573 85.734C35.8802 85.4457 35.8865 85.1958 35.9747 84.9812L35.9842 84.9651ZM59.5508 81.9859C59.5493 82.4766 59.4771 82.9645 59.3365 83.4339C59.1978 83.9165 58.9852 84.3738 58.7063 84.7889C58.4179 85.2168 58.0758 85.6045 57.6885 85.9422C57.2764 86.3013 56.8077 86.5872 56.3021 86.7879C55.9394 86.9129 55.5623 86.9893 55.1803 87.0154C54.7171 87.0602 54.2539 87.1018 53.797 87.1371C53.6394 87.1563 53.5354 87.1947 53.4819 87.2588C53.4272 87.3559 53.4041 87.4679 53.4157 87.5791C53.4504 88.3288 53.4535 89.0784 53.4157 89.8216C53.3779 90.5648 53.3842 91.3112 53.4157 92.064C53.4157 92.5829 53.1416 92.804 52.5964 92.7335C52.3789 92.6967 52.1576 92.6881 51.9379 92.7079C51.6889 92.7239 51.4715 92.7335 51.2762 92.7335C50.8004 92.7143 50.564 92.4836 50.564 92.0351C50.564 91.6422 50.564 91.0015 50.564 90.1131C50.564 89.2247 50.564 88.2188 50.564 87.0954V80.2304C50.564 79.1957 50.564 78.3084 50.564 77.5748C50.564 76.8412 50.5483 76.3959 50.5483 76.2357C50.5416 76.1406 50.5702 76.0463 50.6286 75.9716C50.6869 75.8969 50.7707 75.8471 50.8634 75.8321C51.1994 75.7464 51.5442 75.7013 51.8906 75.6976C52.3507 75.6976 52.8359 75.6976 53.318 75.6976L54.6761 75.752C55.0889 75.768 55.3662 75.7873 55.508 75.8065C56.4966 75.8784 57.4359 76.2728 58.1864 76.9309C58.5469 77.2567 58.8506 77.6423 59.0844 78.0713C59.3225 78.5153 59.4704 79.0033 59.5193 79.5065C59.558 79.926 59.5759 80.3473 59.5728 80.7686L59.5508 81.9859ZM53.4283 83.7831C53.4359 83.8377 53.4589 83.8888 53.4945 83.9304C53.5231 83.98 53.5631 84.0218 53.6111 84.0522C53.7603 84.1056 53.9163 84.1368 54.0743 84.1451C54.3379 84.1726 54.6039 84.164 54.8652 84.1194C55.1675 84.0711 55.4608 83.976 55.7349 83.8375C56.0334 83.6866 56.2852 83.4549 56.4628 83.168C56.684 82.8087 56.8279 82.4058 56.885 81.9859C56.9369 81.5673 56.9632 81.1457 56.9638 80.7238C56.9562 80.5013 56.9025 80.283 56.8062 80.0831C56.7002 79.8538 56.5669 79.6386 56.4092 79.4424C56.2508 79.2441 56.0639 79.0713 55.8546 78.9298C55.6566 78.7938 55.4319 78.7031 55.196 78.664C54.9382 78.6275 54.6781 78.6093 54.4177 78.6095H53.7686C53.5071 78.6095 53.3747 78.7537 53.3747 79.0388C53.3747 79.3239 53.4063 79.7467 53.4126 80.2465C53.4189 80.7462 53.4283 81.2427 53.4283 81.7329V83.7863V83.7831ZM64.5893 76.0564H65.147C65.4275 76.0564 65.7236 76.0564 66.0293 76.0724C66.3349 76.0884 66.6122 76.098 66.8486 76.1236C67.0849 76.1493 67.2141 76.1909 67.233 76.2454C67.2834 76.3895 67.3685 76.7066 67.4819 77.2064C67.5954 77.7061 67.734 78.2988 67.8916 79.0035C68.0491 79.7083 68.2224 80.4899 68.4052 81.3388C68.5879 82.1878 68.7802 83.0559 68.9724 83.94C69.1646 84.8242 69.3568 85.6923 69.5396 86.5444C69.7223 87.3966 69.8956 88.1622 70.0532 88.8509C70.2107 89.5397 70.3399 90.1163 70.4376 90.5808C70.5353 91.0453 70.6015 91.3336 70.6361 91.4393C70.7238 91.6898 70.7326 91.9619 70.6613 92.2177C70.592 92.3779 70.3809 92.5221 70.0311 92.647C69.6763 92.7721 69.3156 92.879 68.9503 92.9674C68.8691 93.0045 68.781 93.0237 68.6919 93.0237C68.6028 93.0237 68.5148 93.0045 68.4335 92.9674C68.3108 92.8456 68.2319 92.6854 68.2098 92.5125C68.1216 92.048 68.027 91.5899 67.9199 91.1446C67.8128 90.6993 67.7183 90.2412 67.63 89.7767C67.6118 89.6868 67.5614 89.6069 67.4887 89.5525C67.416 89.4981 67.326 89.473 67.2361 89.482C66.7761 89.482 66.2908 89.482 65.7835 89.482C65.2762 89.482 64.7815 89.482 64.3057 89.482C64.2263 89.4848 64.1509 89.518 64.0946 89.5749C64.0291 89.6306 63.9755 89.6993 63.937 89.7767C63.8795 89.9306 63.8311 90.0879 63.7921 90.2476C63.729 90.4719 63.666 90.7025 63.6061 90.9428C63.5463 91.183 63.4927 91.4041 63.4486 91.6027C63.4269 91.7205 63.3952 91.8363 63.3541 91.9487C63.2776 92.226 63.1038 92.4653 62.8657 92.6214C62.6072 92.7159 62.3259 92.7249 62.0621 92.647C61.8857 92.6118 61.7155 92.5861 61.5485 92.5669C61.3761 92.5491 61.2047 92.5224 61.0349 92.4868C60.6284 92.4324 60.4803 92.2177 60.5843 91.8461C60.6032 91.7757 60.6694 91.5258 60.7828 91.0549C60.8963 90.584 61.0475 90.017 61.2303 89.3122C61.413 88.6075 61.6179 87.8098 61.8384 86.9224C62.059 86.0351 62.2859 85.1285 62.5253 84.1995C62.7648 83.2705 62.998 82.3543 63.2375 81.451C63.477 80.5476 63.6849 79.7211 63.8677 78.9683C64.0505 78.2155 64.2112 77.5844 64.3435 77.0654C64.4758 76.5465 64.5452 76.2357 64.5798 76.0724L64.5893 76.0564ZM65.7489 81.6912C65.6606 82.0116 65.5755 82.3896 65.4873 82.8188C65.3991 83.2481 65.3109 83.6902 65.2226 84.1451C65.1344 84.5999 65.0462 85.0484 64.9579 85.4873C64.8697 85.9262 64.7815 86.3042 64.6933 86.6277C64.6428 86.8424 64.7122 86.9481 64.9075 86.9481C65.1533 86.9481 65.4243 86.9481 65.7236 86.9481C66.023 86.9481 66.294 86.9256 66.5429 86.9096C66.7918 86.8936 66.9305 86.8744 66.9651 86.8007C67.0024 86.6514 67.0024 86.4951 66.9651 86.3458C66.9116 86.1312 66.858 85.8621 66.8076 85.5418C66.7572 85.2214 66.7005 84.8819 66.6469 84.5327C66.5933 84.1835 66.5429 83.8503 66.4893 83.5268C66.4358 83.2032 66.3917 82.9374 66.357 82.7227C66.2988 82.3975 66.2199 82.0765 66.1207 81.7617C66.0832 81.632 66.0246 81.5097 65.9474 81.3997C65.9033 81.3549 65.8654 81.3709 65.8308 81.451C65.7908 81.5326 65.7602 81.6186 65.7394 81.7072L65.7489 81.6912ZM73.9699 79.5065C73.879 79.3944 73.7998 79.2731 73.7336 79.1445C73.6264 78.9555 73.5225 78.7472 73.4185 78.5038C73.3145 78.2603 73.22 78.0585 73.1412 77.8631C73.0799 77.7372 73.0395 77.6019 73.0214 77.4627C73.0214 77.3922 73.1601 77.216 73.4437 76.9405C73.7865 76.6146 74.1625 76.3268 74.5655 76.082C75.0784 75.7617 75.6221 75.4955 76.1882 75.2875C76.8132 75.0542 77.4765 74.9454 78.1419 74.9672C78.6962 74.9755 79.243 75.0987 79.7489 75.3292C80.1994 75.5347 80.6069 75.8261 80.9494 76.1877C81.2709 76.5292 81.5264 76.9291 81.7025 77.3666C81.8768 77.7956 81.9584 78.2577 81.942 78.7216C81.9269 79.1544 81.8646 79.5842 81.7561 80.003C81.6637 80.3551 81.549 80.7007 81.4126 81.0377C81.3113 81.2874 81.1923 81.5294 81.0566 81.7617C80.9982 81.8732 80.9318 81.9803 80.8581 82.082C80.8273 82.131 80.7865 82.1725 80.7383 82.2038C80.7034 82.2247 80.6724 82.2518 80.6469 82.2839C80.628 82.3095 80.6469 82.3479 80.6469 82.3928C80.7024 82.4621 80.7696 82.5207 80.8455 82.5658C81.4633 83.0477 81.9457 83.6862 82.2445 84.4173C82.6532 85.4462 82.8298 86.5551 82.7613 87.6624C82.7789 88.7393 82.549 89.8055 82.0901 90.7762C81.743 91.4662 81.2357 92.06 80.6123 92.5061C80.0754 92.8764 79.4677 93.1275 78.8288 93.2429C78.3158 93.3419 77.7942 93.387 77.2722 93.3774C76.3908 93.3937 75.5241 93.1464 74.7797 92.6662C74.1503 92.2424 73.6077 91.6984 73.1821 91.0645C72.522 90.0618 72.1409 88.8962 72.0793 87.6913C72.0857 87.5294 72.1521 87.3761 72.2652 87.262C72.3795 87.1259 72.5133 87.0082 72.6622 86.9128C72.9153 86.7651 73.1798 86.6387 73.4531 86.5348C73.7336 86.4291 74.014 86.3298 74.2976 86.2401C74.3323 86.2049 74.389 86.2017 74.4678 86.2401C74.5259 86.2513 74.5778 86.2845 74.6127 86.333C74.6482 86.4562 74.6703 86.583 74.6789 86.711C74.7072 86.9256 74.7451 87.1755 74.7986 87.4606C74.8522 87.7457 74.9089 88.034 74.9688 88.3191C75.0118 88.5394 75.0784 88.7543 75.1673 88.9598C75.3848 89.3623 75.682 89.7146 76.0401 89.9946C76.4158 90.3024 76.8758 90.4848 77.3573 90.5167C77.8573 90.549 78.3514 90.3915 78.7437 90.0746C79.1261 89.7554 79.4249 89.3449 79.6134 88.8797C80.0192 87.873 80.0383 86.748 79.667 85.7276C79.4924 85.2473 79.1968 84.822 78.8099 84.4942C78.3918 84.1507 77.8696 83.9651 77.3321 83.9689C76.9791 83.9529 76.6546 83.9432 76.3552 83.9432H75.7502C75.6589 83.9432 75.6021 83.8183 75.5769 83.5684C75.5544 83.2913 75.5544 83.0127 75.5769 82.7355C75.5911 82.4567 75.6258 82.1794 75.6809 81.9058C75.7345 81.6528 75.8038 81.5278 75.892 81.5278C75.9803 81.5278 76.1347 81.5278 76.3552 81.4894C76.599 81.4577 76.8409 81.4128 77.08 81.3549C77.3447 81.2908 77.6125 81.2107 77.8866 81.1146C78.1303 81.0333 78.3648 80.9259 78.5862 80.7943C78.7945 80.6183 78.9569 80.3927 79.0588 80.1376C79.2005 79.8656 79.2903 79.5689 79.3235 79.263C79.362 78.8536 79.2889 78.4414 79.1124 78.0713C78.9777 77.8138 78.7528 77.6172 78.4822 77.5203C78.2008 77.4293 77.9006 77.416 77.6125 77.4819C77.2686 77.5504 76.9356 77.6668 76.6231 77.8279C76.278 78.009 75.9509 78.2236 75.6463 78.4685C75.3492 78.7007 75.0749 78.9614 74.827 79.247C74.7033 79.396 74.5452 79.5115 74.3669 79.5834C74.3014 79.6154 74.2274 79.6252 74.156 79.6113C74.0845 79.5975 74.0193 79.5607 73.9699 79.5065ZM84.5511 79.5353C84.6246 79.2128 84.7349 78.7964 84.8819 78.286C85.0453 77.7509 85.2956 77.2474 85.6224 76.7963C86.0065 76.278 86.5023 75.8561 87.0719 75.563C87.8507 75.1897 88.7073 75.0148 89.5675 75.0537C90.3046 75.0193 91.0347 75.2113 91.663 75.6047C92.1683 75.9354 92.5981 76.3723 92.9234 76.886C93.2034 77.3306 93.401 77.8235 93.5063 78.3404C93.5865 78.707 93.635 79.08 93.6513 79.4552C93.6513 79.6506 93.6513 79.9902 93.6513 80.4739C93.6513 80.9576 93.6513 81.5054 93.6513 82.1237C93.6513 82.7419 93.6513 83.4051 93.6513 84.0938C93.6513 84.7825 93.6513 85.4489 93.6513 86.0671V88.7356C93.6288 89.1622 93.5449 89.5831 93.4023 89.9849C93.2176 90.5476 92.9452 91.0765 92.5957 91.5514C92.2094 92.0871 91.726 92.5427 91.1714 92.8937C90.5358 93.2845 89.8027 93.4803 89.0602 93.4575C88.3997 93.483 87.7409 93.374 87.1223 93.1371C86.2024 92.7597 85.467 92.0271 85.0773 91.0997C84.9088 90.7072 84.78 90.2983 84.6929 89.8792C84.6191 89.5259 84.5748 89.1669 84.5605 88.8061C84.5605 88.4857 84.5605 88.2615 84.5605 88.1366C84.5605 88.0116 84.5605 87.7233 84.5605 87.278C84.5605 86.8327 84.5448 86.301 84.5353 85.6923C84.5259 85.0837 84.5164 84.4462 84.507 83.7703C84.4975 83.0943 84.4912 82.4665 84.4818 81.877C84.4723 81.2876 84.4818 80.7782 84.4818 80.349C84.4818 79.9197 84.5385 79.6538 84.5542 79.5353H84.5511ZM90.8059 80.1504C90.7719 79.8525 90.7192 79.5572 90.6483 79.2662C90.572 78.9681 90.4273 78.6925 90.2261 78.4621C90.0689 78.2621 89.8653 78.1047 89.6337 78.0041C89.4243 77.917 89.1967 77.8851 88.972 77.9111C88.7474 77.9365 88.5317 78.0143 88.3418 78.1386C88.141 78.2733 87.9781 78.4587 87.8691 78.6768C87.6267 79.105 87.4733 79.5793 87.4185 80.0703C87.4028 80.1952 87.3902 80.4387 87.3807 80.7943C87.3712 81.1498 87.365 81.5823 87.365 82.0756V88.3544C87.3324 88.7929 87.4541 89.2288 87.7084 89.5845C88.002 89.8913 88.3879 90.0898 88.805 90.1483C89.0147 90.1831 89.2293 90.1733 89.4352 90.1195C89.6412 90.0692 89.8372 89.9836 90.015 89.8664C90.1908 89.7485 90.3427 89.5973 90.4624 89.4211C90.5815 89.2572 90.6544 89.0634 90.6735 88.8605C90.6924 88.6619 90.7113 88.3192 90.7271 87.8258C90.7429 87.3325 90.7618 86.7751 90.7807 86.1504C90.7996 85.5257 90.8122 84.869 90.8185 84.1899C90.8248 83.5108 90.8185 82.8861 90.8185 82.3127C90.8185 81.7393 90.8185 81.2523 90.8185 80.8519C90.8185 80.4515 90.809 80.2048 90.809 80.1504H90.8059ZM99.6288 75.8065C99.7249 75.9706 99.8011 76.1459 99.8556 76.3286C99.9848 76.6778 100.149 77.1199 100.341 77.6549C100.533 78.1899 100.738 78.7729 100.949 79.4007C101.16 80.0286 101.359 80.6181 101.541 81.1691C101.724 81.7201 101.885 82.2038 102.017 82.6042C102.15 83.0046 102.225 83.2449 102.241 83.2897C102.26 83.4196 102.316 83.541 102.402 83.6389C102.452 83.6742 102.515 83.5941 102.584 83.3987C102.619 83.2897 102.726 82.9598 102.9 82.4056C103.073 81.8514 103.281 81.1979 103.53 80.4451C103.779 79.6923 104.012 78.9074 104.267 78.0841L104.941 75.9122C104.957 75.8417 105.036 75.768 105.178 75.6976C105.238 75.667 105.3 75.6402 105.364 75.6175H107.632L107.79 75.6719C107.826 75.7081 107.866 75.7394 107.91 75.7648C107.933 75.781 107.951 75.8032 107.963 75.8292C107.975 75.8551 107.979 75.8838 107.976 75.9122C108.011 76.1813 108.058 76.6266 108.121 77.2544C108.184 77.8823 108.253 78.6031 108.332 79.4264C108.411 80.2497 108.499 81.1434 108.597 82.1109C108.694 83.0783 108.789 84.0329 108.887 84.994C108.984 85.955 109.076 86.8936 109.164 87.797C109.252 88.7004 109.331 89.5012 109.4 90.1996C109.469 90.8979 109.523 91.4809 109.558 91.9038C109.592 92.3267 109.611 92.5701 109.611 92.5861C109.611 92.6022 109.545 92.6886 109.413 92.7335C109.257 92.785 109.098 92.8257 108.937 92.8552C108.754 92.8905 108.559 92.9225 108.357 92.9481L107.844 93.0154C107.491 93.0506 107.257 93.0154 107.144 92.8937C106.996 92.6872 106.918 92.4378 106.92 92.1825C106.901 91.9871 106.867 91.6603 106.813 91.2215C106.76 90.7826 106.7 90.2412 106.63 89.6518C106.561 89.0623 106.479 88.4345 106.391 87.7746C106.303 87.1147 106.221 86.4676 106.142 85.8525C106.063 85.2374 105.988 84.6576 105.918 84.1483C105.849 83.6389 105.786 83.2321 105.732 82.9277C105.698 82.7676 105.657 82.7003 105.613 82.7259C105.568 82.7516 105.531 82.8284 105.496 82.9534L105.033 84.459C104.841 85.0997 104.645 85.7404 104.453 86.3811C104.261 87.0218 104.087 87.5984 103.939 88.0981C103.791 88.5978 103.703 88.8862 103.687 88.9566C103.672 89.0271 103.618 89.0688 103.583 89.1328C103.558 89.181 103.521 89.2218 103.476 89.2514C103.215 89.3323 102.945 89.3817 102.673 89.3987C102.394 89.4039 102.115 89.3814 101.841 89.3314C101.676 89.3149 101.524 89.2332 101.419 89.104C101.32 88.9688 101.24 88.8199 101.182 88.6619C100.884 87.7329 100.563 86.8071 100.218 85.8845C99.8735 84.9619 99.5521 84.0457 99.2538 83.136C99.2365 83.0695 99.2099 83.0059 99.175 82.947C99.1561 82.931 99.1341 82.947 99.1088 83.0014C99.0742 83.1143 99.0603 83.2326 99.0679 83.3506C99.0679 83.53 99.0301 83.8471 99.0049 84.3116C98.9797 84.7761 98.9418 85.2919 98.8977 85.8813C98.8536 86.4708 98.8064 87.0986 98.7528 87.7585C98.6992 88.4185 98.652 89.0559 98.6078 89.6646C98.5637 90.2733 98.5196 90.8178 98.4755 91.3016C98.4314 91.7853 98.3999 92.1505 98.3841 92.4003C98.3843 92.445 98.3753 92.4891 98.3577 92.53C98.3401 92.5708 98.3144 92.6075 98.282 92.6377C98.2497 92.6679 98.2115 92.6908 98.17 92.7051C98.1284 92.7194 98.0844 92.7247 98.0407 92.7207L97.2749 92.7719C97.0201 92.7912 96.7641 92.7912 96.5092 92.7719C96.2823 92.7459 96.0693 92.6472 95.9011 92.49C95.8155 92.38 95.7588 92.2497 95.7362 92.1113C95.7136 91.973 95.7259 91.831 95.7719 91.6988C95.7877 91.5578 95.8318 91.1094 95.9011 90.3597C95.9704 89.6101 96.0523 88.694 96.1406 87.6208C96.2288 86.5476 96.3202 85.3784 96.4179 84.1483C96.5155 82.9181 96.6069 81.7329 96.6952 80.6245C96.7834 79.5161 96.8559 78.5679 96.9189 77.7414C96.9819 76.9149 97.0197 76.4023 97.0386 76.1717C97.029 76.1203 97.0318 76.0674 97.0469 76.0174C97.062 75.9674 97.089 75.922 97.1253 75.885C97.1617 75.848 97.2064 75.8207 97.2555 75.8053C97.3047 75.79 97.3568 75.7871 97.4073 75.7969H99.613L99.6288 75.8065ZM4.46755 64.6361H5.90757C6.26679 64.6361 6.62601 64.6361 6.98838 64.6136C7.35075 64.5912 7.67845 64.5944 7.98411 64.5944C8.04082 64.5944 8.10385 64.5304 8.17317 64.4022C8.23378 64.306 8.26954 64.1958 8.27715 64.0819V62.4129C8.27715 61.6099 8.2698 60.6873 8.25509 59.6451C8.24039 58.6029 8.23409 57.4774 8.23619 56.2687C8.23619 55.0578 8.23619 53.8725 8.21413 52.716C8.19207 51.5596 8.18577 50.4896 8.17317 49.5126C8.16056 48.5355 8.13851 47.7219 8.11015 47.1036C8.11015 46.7096 8.28976 46.511 8.65213 46.511C9.20356 46.5398 9.74553 46.5462 10.2718 46.5302C10.798 46.5142 11.3274 46.511 11.8473 46.511C12.1624 46.511 12.3451 46.6647 12.3451 46.9755C12.3745 47.5115 12.3956 48.2515 12.4082 49.1954C12.4082 50.1405 12.4365 51.1816 12.4491 52.3252C12.4617 53.4688 12.4775 54.6509 12.4901 55.8746C12.5027 57.0983 12.5184 58.2644 12.5342 59.3632C12.55 60.462 12.5531 61.4486 12.5531 62.3232C12.5531 63.1977 12.5531 63.8448 12.5941 64.2677V64.5656C12.5923 64.6386 12.6074 64.711 12.6382 64.777H16.1043C16.0749 61.0546 16.0613 57.6995 16.0634 54.7118C16.0634 53.4304 16.0634 52.1843 16.0413 50.9285C16.0192 49.6728 16.0224 48.5259 16.0224 47.4816V43.5382C16.038 43.3747 16.0874 43.2164 16.1673 43.0737C16.2196 43.0101 16.287 42.9611 16.3631 42.9314C16.4392 42.9017 16.5215 42.8922 16.6022 42.9039C17.1568 42.9039 17.6987 42.9039 18.225 42.8814C18.7512 42.859 19.2932 42.8494 19.8477 42.8206C19.9153 42.811 19.9842 42.8175 20.0489 42.8395C20.1136 42.8616 20.1724 42.8986 20.2206 42.9476C20.2689 42.9967 20.3053 43.0565 20.327 43.1222C20.3487 43.188 20.355 43.258 20.3456 43.3267V58.4854C20.3456 59.9078 20.353 61.1336 20.3677 62.163C20.3824 63.1924 20.3887 63.8331 20.3866 64.0851C20.3847 64.1944 20.4153 64.3018 20.4743 64.3932C20.5333 64.4846 20.618 64.5558 20.7174 64.5976C20.8236 64.6523 20.9357 64.6943 21.0514 64.7226L22.4631 64.7674C22.5787 64.7961 22.6908 64.838 22.7971 64.8923C22.8793 64.9285 22.95 64.9872 23.0012 65.0619C23.0524 65.1366 23.0821 65.2243 23.087 65.3152C23.087 66.1321 23.1091 66.9169 23.15 67.6825C23.191 68.4482 23.1973 69.233 23.1721 70.0499C23.168 70.3533 23.1115 70.6537 23.0051 70.9372C22.9232 71.107 22.69 71.1935 22.2993 71.1935H19.6366C19.0253 71.1935 18.7228 70.9661 18.7228 70.5176V69.2042H17.204C16.3312 69.2042 15.2756 69.2042 14.053 69.185C12.8304 69.1657 11.4881 69.1625 10.0606 69.1625H1.4142C1.2762 69.1746 1.13725 69.1572 1.00623 69.1115C0.875206 69.0659 0.754993 68.9929 0.653275 68.8974C0.551557 68.8018 0.47057 68.6857 0.415491 68.5565C0.360411 68.4273 0.33245 68.2878 0.333395 68.147C0.333395 67.9228 0.333395 67.4006 0.311338 66.5838C0.289281 65.7669 0.28298 64.7578 0.270375 63.5597C0.257771 62.3616 0.242017 61.0386 0.229413 59.5874C0.216809 58.1363 0.207356 56.6755 0.207356 55.2115C0.182147 51.771 0.141182 47.9269 0.0844632 43.6791C0.109551 43.5473 0.15084 43.4192 0.207356 43.2979C0.240224 43.1771 0.310903 43.0705 0.408695 42.9942C0.506487 42.9179 0.626065 42.8761 0.749331 42.875C1.02662 42.875 1.35118 42.875 1.72615 42.8526C2.10113 42.8302 2.46035 42.8334 2.80696 42.8334C3.12255 42.831 3.43806 42.8449 3.75227 42.875C3.94576 42.8739 4.13494 42.9332 4.29424 43.0448C4.34224 43.3875 4.36331 43.7335 4.35727 44.0795C4.36987 44.7202 4.38352 45.5446 4.39823 46.5526C4.41293 47.5606 4.41293 48.716 4.39823 50.0187C4.38142 51.3151 4.36777 52.6327 4.35727 53.9718C4.34676 55.3108 4.33836 56.6178 4.33206 57.8928V61.3173C4.33206 62.3168 4.33941 63.1198 4.35412 63.7263C4.36042 64.3317 4.39508 64.6361 4.4518 64.6361H4.46755ZM31.0812 42.9039H31.9572C32.3983 42.9039 32.8647 42.9039 33.3499 42.9263C33.8352 42.9487 34.2637 42.9679 34.6387 43.0096C35.0137 43.0512 35.2122 43.1153 35.2405 43.1986C35.3256 43.426 35.4548 43.9258 35.6376 44.701C35.8203 45.4762 36.0315 46.4213 36.2678 47.5329C36.5041 48.6445 36.7877 49.8746 37.0807 51.2136C37.3738 52.5527 37.6668 53.9173 37.9725 55.314C38.2781 56.7107 38.5775 58.0754 38.8674 59.4144C39.1573 60.7535 39.4283 61.9772 39.6772 63.0504C39.9261 64.1235 40.1278 65.0461 40.2822 65.7765C40.4366 66.5069 40.5374 66.9618 40.5973 67.1315C40.7345 67.5255 40.7488 67.9528 40.6383 68.3553C40.528 68.6115 40.194 68.8358 39.6394 69.0344C39.0798 69.232 38.5109 69.4009 37.9347 69.5405C37.8073 69.5986 37.6693 69.6286 37.5298 69.6286C37.3902 69.6286 37.2522 69.5986 37.1249 69.5405C36.9294 69.3498 36.8047 69.0964 36.7719 68.823C36.6302 68.0894 36.4789 67.3718 36.3119 66.6638C36.1449 65.9559 35.9968 65.2415 35.855 64.5079C35.8254 64.3648 35.7444 64.238 35.628 64.1522C35.5115 64.0663 35.3678 64.0276 35.2248 64.0434C34.5043 64.0434 33.7417 64.0509 32.9371 64.0658C32.1326 64.0808 31.3564 64.0872 30.6085 64.0851C30.4892 64.0956 30.3775 64.149 30.2934 64.2356C30.1889 64.3239 30.1031 64.4329 30.0413 64.556C29.9888 64.6969 29.9132 64.9436 29.8145 65.296C29.7168 65.6483 29.6191 66.0135 29.5214 66.3948C29.4237 66.776 29.3418 67.1187 29.2725 67.4295C29.2377 67.6165 29.1892 67.8007 29.1275 67.9805C28.907 68.5443 28.6486 68.8966 28.3587 69.0376C27.9528 69.1829 27.5126 69.1975 27.0983 69.0792C26.821 69.0216 26.5531 68.9799 26.2885 68.9511C26.0238 68.9223 25.7559 68.8806 25.4786 68.8262C24.8484 68.7397 24.6027 68.4033 24.7697 67.8107L25.0848 66.5613C25.2675 65.8438 25.5007 64.9276 25.7938 63.816C26.0868 62.7044 26.4019 61.4486 26.7391 60.0519C27.0762 58.6552 27.448 57.2265 27.8199 55.7593C28.1917 54.2921 28.5698 52.8506 28.9448 51.4283C29.3198 50.0059 29.6506 48.6989 29.9437 47.5168C30.2367 46.3348 30.4825 45.3321 30.6905 44.5152C30.8984 43.6983 31.0119 43.1569 31.0654 42.9039H31.0812ZM32.8962 51.7838C32.7575 52.29 32.6189 52.8815 32.4802 53.5585C32.3416 54.2355 32.2019 54.9328 32.0612 55.6504C31.9225 56.3722 31.7839 57.077 31.6452 57.7647C31.5066 58.4523 31.3679 59.0514 31.2293 59.5618C31.1474 59.9014 31.2576 60.0679 31.5633 60.0679C31.9509 60.0679 32.3794 60.0679 32.8521 60.0487C33.3247 60.0295 33.7533 60.0135 34.1408 59.9847C34.5284 59.9558 34.7521 59.9302 34.8057 59.8149C34.8666 59.5797 34.8666 59.3325 34.8057 59.0973C34.7238 58.7577 34.6387 58.3349 34.5568 57.8159C34.4748 57.297 34.3898 56.7812 34.3078 56.2302C34.2259 55.6792 34.1408 55.1539 34.0589 54.6445C33.977 54.1352 33.9045 53.7155 33.8509 53.3631C33.7596 52.848 33.6343 52.3396 33.476 51.8415C33.4185 51.637 33.3268 51.4442 33.205 51.2713C33.1357 51.2008 33.0726 51.2296 33.0191 51.3546C32.9618 51.4923 32.9206 51.6364 32.8962 51.7838ZM53.192 59.6899C53.192 59.4625 53.192 59.2511 53.1699 59.0492C53.157 58.8336 53.1783 58.6173 53.233 58.4086C53.2454 58.295 53.2967 58.1896 53.3779 58.1106C53.4151 58.0609 53.4626 58.0202 53.5171 57.9914C53.5716 57.9626 53.6316 57.9465 53.693 57.9441C54.2245 57.885 54.7593 57.8636 55.2937 57.88C55.8893 57.88 56.4249 57.8992 56.8976 57.8992C57.0028 57.912 57.0989 57.966 57.1654 58.0498C57.2472 58.1176 57.2993 58.2154 57.3104 58.3221C57.4205 58.9359 57.4702 59.5594 57.4585 60.1833C57.4585 60.8047 57.4585 61.423 57.4774 62.0445C57.4492 62.78 57.3436 63.5102 57.1623 64.2228C56.9403 65.175 56.5758 66.0869 56.0815 66.9265C55.5511 67.8321 54.8432 68.6172 54.0018 69.233C53.0575 69.8987 51.9267 70.2359 50.7783 70.194C49.9007 70.1955 49.0293 70.046 48.2007 69.752C47.3616 69.4501 46.6009 68.9583 45.9761 68.3136C45.2863 67.5859 44.7502 66.7225 44.4006 65.7765C43.9716 64.5785 43.7674 63.3094 43.7988 62.0349V48.7373C43.8149 48.0505 43.877 47.3655 43.9847 46.6871C44.1209 45.7971 44.41 44.9383 44.8386 44.15C45.3204 43.2776 45.9972 42.5325 46.8143 41.9749C47.6861 41.3534 48.8856 41.0427 50.4128 41.0427C51.4737 41.0072 52.5298 41.2027 53.5102 41.6161C54.2533 41.941 54.9194 42.4238 55.4639 43.032C55.9357 43.5735 56.2967 44.2051 56.5258 44.89C56.7329 45.5079 56.8785 46.1454 56.9606 46.7929C57.0249 47.2909 57.0534 47.793 57.0457 48.2953C57.0457 48.7021 57.0236 48.936 57.0236 48.9936C57.019 49.1927 56.9915 49.3905 56.9417 49.5831C56.885 49.8105 56.5667 49.9226 55.9964 49.9226C55.8042 49.9226 55.4922 49.9226 55.0511 49.9451C54.61 49.9675 54.3106 49.9643 54.1058 49.9643C53.5796 49.9643 53.2676 49.9002 53.1605 49.7753C53.0323 49.5749 52.9415 49.3523 52.8926 49.1186C52.8127 48.852 52.7766 48.5738 52.7855 48.2953C52.7682 47.8308 52.6994 47.3698 52.5807 46.921C52.4692 46.4631 52.2782 46.0292 52.0167 45.6396C51.8916 45.458 51.7228 45.312 51.5264 45.2155C51.33 45.119 51.1126 45.0754 50.8949 45.0886C50.3509 45.0596 49.814 45.2238 49.3761 45.5531C49.0138 45.85 48.7229 46.2269 48.5253 46.6551C48.3356 47.0582 48.2162 47.4918 48.1724 47.9365C48.1343 48.2737 48.1133 48.6126 48.1094 48.952C48.1094 49.2307 48.1094 49.7048 48.0873 50.3679C48.0653 51.031 48.0684 51.7902 48.0684 52.6488V61.4647C48.0684 63.1272 48.2732 64.2709 48.6986 64.8891C48.8974 65.1925 49.1704 65.438 49.4909 65.6015C49.8114 65.765 50.1682 65.8407 50.5262 65.8213C50.8256 65.8349 51.1238 65.7748 51.3954 65.6459C51.667 65.5171 51.9039 65.3234 52.086 65.0813C52.4713 64.5655 52.7481 63.9744 52.8989 63.3451C53.0643 62.6818 53.1541 62.0014 53.1668 61.3173C53.1731 60.6286 53.192 60.084 53.192 59.6899ZM60.1243 42.3561C60.5173 42.3079 60.9132 42.2865 61.3091 42.292C61.9865 42.276 62.7995 42.2696 63.7416 42.2696C64.6838 42.2696 65.689 42.2696 66.7572 42.2472C67.8254 42.2247 68.8306 42.228 69.7727 42.228C70.7149 42.228 71.5184 42.228 72.1833 42.2472C72.8481 42.2664 73.2389 42.2696 73.3492 42.2696C73.6106 42.2633 73.8666 42.3456 74.077 42.5034C74.1491 42.6105 74.199 42.7312 74.2239 42.8584C74.2488 42.9856 74.2482 43.1165 74.222 43.2434C74.1936 43.6016 74.1936 43.9616 74.222 44.3198C74.249 44.6801 74.2353 45.0423 74.181 45.3994C74.0707 46.133 73.6107 46.4981 72.8072 46.4981C72.2738 46.4691 71.739 46.4755 71.2065 46.5174C70.6928 46.5622 70.1603 46.5814 69.6057 46.5814C69.2906 46.5814 69.1614 46.7384 69.1898 47.0491V68.6948C69.1988 68.758 69.1931 68.8223 69.1733 68.8828C69.1536 68.9434 69.1202 68.9984 69.0758 69.0435C69.0314 69.0885 68.9774 69.1225 68.9178 69.1426C68.8583 69.1627 68.795 69.1685 68.7329 69.1593C68.2602 69.1882 67.7876 69.1946 67.3401 69.1818C66.8927 69.1689 66.4169 69.1818 65.9442 69.201C65.314 69.2586 64.9989 68.949 64.9989 68.272C64.9706 67.6313 64.9516 66.6703 64.9359 65.3889C64.9201 64.1075 64.9075 62.7268 64.8949 61.2052C64.8823 59.6835 64.8729 58.1331 64.8729 56.5538C64.8729 54.9745 64.8729 53.5329 64.854 52.2195C64.8351 50.9061 64.8319 49.4229 64.8319 47.7603C64.8342 47.5343 64.8205 47.3084 64.7909 47.0844C64.7654 46.9276 64.7307 46.7725 64.687 46.6199C64.646 46.4789 64.583 46.4084 64.5011 46.4084L63.8708 46.4277C63.5242 46.4437 63.1272 46.4501 62.6861 46.4501H60.2314C60.1778 46.4501 60.1148 46.386 60.0455 46.2579C59.9917 46.1759 59.9562 46.083 59.9415 45.9856C59.9415 45.787 59.9415 45.5051 59.9194 45.1399C59.8974 44.7747 59.9005 44.3999 59.9005 44.0187C59.8984 43.6654 59.9184 43.3123 59.9604 42.9615C59.9637 42.7471 60.0247 42.5377 60.1369 42.3561H60.1243ZM87.7777 57.5757C87.6954 57.5763 87.6149 57.6003 87.5452 57.645C87.4756 57.6897 87.4197 57.7534 87.3839 57.8287C87.2966 57.9779 87.2197 58.1331 87.1538 58.2932C87.0152 58.5463 86.7726 58.9788 86.4259 59.5746C86.0793 60.1705 85.7012 60.856 85.2853 61.6024L83.987 63.9569L82.7266 66.1993C82.3517 66.8753 82.0334 67.4423 81.7813 67.8908C81.6355 68.1225 81.504 68.3632 81.3874 68.6115C80.9421 69.4295 80.3318 69.6121 79.5567 69.1593C79.3361 69.0184 79.0588 68.8582 78.7248 68.6724C78.4459 68.5133 78.1538 68.3793 77.852 68.272C77.5369 68.1887 77.3667 68.0541 77.31 67.8715C77.2596 67.663 77.2901 67.4428 77.3951 67.2565C77.477 67.06 77.7312 66.5667 78.1576 65.7765C78.5841 64.9863 79.0651 64.1128 79.6008 63.1561L81.2078 60.273C81.7467 59.3119 82.1783 58.5367 82.5092 57.9473C82.7329 57.5532 82.6636 57.2842 82.3012 57.1432C81.8065 56.9446 81.2929 56.7139 80.7572 56.4448C80.1892 56.1545 79.6786 55.7604 79.251 55.282C78.7389 54.6972 78.3468 54.0144 78.0978 53.2734C77.7612 52.216 77.6077 51.1071 77.644 49.9963C77.644 48.4501 77.977 47.1826 78.6429 46.1938C79.2349 45.2819 79.9984 44.4981 80.8896 43.8873C81.6154 43.3912 82.4054 42.9998 83.2371 42.7245C83.9702 42.5109 84.4208 42.37 84.5889 42.3016C85.0601 42.1928 85.5427 42.1433 86.0258 42.1543C86.7316 42.1543 87.4658 42.1318 88.2315 42.1318C88.9972 42.1318 89.6999 42.1479 90.3521 42.1767C91.0044 42.2055 91.3983 42.2183 91.5369 42.2183C91.789 42.1895 91.9529 42.2183 92.0379 42.3465C92.1301 42.4979 92.1731 42.675 92.1608 42.8526C92.1608 43.1057 92.1608 43.6567 92.1829 44.5024C92.2049 45.3481 92.2018 46.3764 92.2018 47.5873V60.462C92.2018 61.8843 92.2018 63.1465 92.2238 64.2452C92.2459 65.344 92.2459 66.241 92.2459 66.9297V68.0093C92.2995 68.6852 92.0096 69.0664 91.3699 69.1497C91.1222 69.1813 90.8727 69.1953 90.6231 69.1914H89.7093C89.4315 69.1933 89.1537 69.1794 88.8774 69.1497C88.7082 69.138 88.5405 69.1101 88.3764 69.0664C88.245 69.0298 88.1248 68.9601 88.0267 68.8638C87.9287 68.7675 87.8561 68.6477 87.8155 68.5154C87.7451 68.2546 87.7101 67.9851 87.7116 67.7146C87.7116 67.123 87.7189 66.3189 87.7336 65.3024C87.7336 64.2869 87.7683 63.281 87.7935 62.2783C87.8187 61.2757 87.8439 60.3787 87.8565 59.5746C87.8691 58.7706 87.8786 58.2708 87.8786 58.0722V57.7775C87.8765 57.6429 87.8471 57.5757 87.7903 57.5757H87.7777ZM87.8628 46.6263C87.8628 46.4565 87.7305 46.3636 87.4626 46.3508C87.1948 46.338 86.8576 46.3284 86.4385 46.3284C86.0948 46.3378 85.7519 46.3667 85.4113 46.4149C84.9159 46.4816 84.4347 46.6309 83.987 46.8569C83.4833 47.1099 83.0451 47.4797 82.7077 47.9365C82.3152 48.519 82.1246 49.2178 82.1657 49.9226C82.1375 50.5603 82.2744 51.1944 82.5628 51.7614C82.798 52.1915 83.1202 52.5659 83.5081 52.8602C83.8403 53.1134 84.2166 53.3003 84.6172 53.4112C84.9107 53.4969 85.2133 53.5464 85.5184 53.5585H87.1538C87.2499 53.5722 87.3479 53.5631 87.4399 53.532C87.532 53.5008 87.6158 53.4485 87.6847 53.3791C87.7536 53.3096 87.8058 53.2249 87.8373 53.1316C87.8687 53.0383 87.8785 52.9388 87.866 52.841C87.866 52.5591 87.866 52.1202 87.8849 51.5308C87.9038 50.9413 87.9069 50.3231 87.9069 49.6888C87.9069 49.0545 87.9069 48.449 87.8849 47.8724C87.8628 47.2958 87.8754 46.8794 87.8754 46.6263H87.8628Z" fill="#4E1604"/>
<path d="M199.431 18.8879C199.282 18.9039 199.132 18.9039 198.984 18.8879C198.791 18.8687 198.602 18.7982 198.76 18.5675C199.075 18.071 198.731 17.9269 198.379 17.7987C196.98 17.3406 195.899 16.3988 194.815 15.4538C194.452 15.1334 194.036 14.89 193.658 14.5921C192.893 13.9834 192.606 12.9071 192.083 11.9781C191.679 11.2541 191.301 10.5749 190.936 9.883C190.786 9.29333 190.466 8.76308 190.016 8.36136C189.401 8.06985 188.755 7.75271 188.475 7.58292C188.194 7.41314 187.104 6.91661 186.269 6.56102C186.27 6.47627 186.264 6.39158 186.25 6.30795C186.233 6.25173 186.202 6.20062 186.161 6.15889C186.12 6.11716 186.07 6.08604 186.015 6.06815C185.959 6.05026 185.901 6.04612 185.844 6.05608C185.786 6.06603 185.732 6.08979 185.686 6.12535C185.65 6.1712 185.62 6.22186 185.598 6.27592L185.258 6.13496C185.043 5.62562 185.091 4.75428 185.113 4.42112C185.135 4.08796 184.681 3.22944 184.167 3.11732C183.654 3.0052 183.203 3.11731 183.061 3.36078C182.582 3.4761 181.618 3.5658 181.262 3.26467C180.906 2.96355 180.172 2.65281 179.973 3.13974C179.448 3.0138 178.896 3.05976 178.398 3.27108C178.266 3.35801 178.142 3.45779 178.029 3.569C177.783 3.24866 177.594 2.8226 177.349 2.55671C177.223 2.38897 177.063 2.25046 176.881 2.15046C176.698 2.05046 176.497 1.99129 176.29 1.97689C175.965 1.70238 175.548 1.56786 175.127 1.60209C175.086 1.57326 175.042 1.54763 174.998 1.522C174.908 1.30124 174.768 1.10565 174.588 0.951787C174.35 0.736372 174.044 0.61576 173.725 0.612217C173.541 0.491292 173.34 0.398473 173.129 0.336721C173.01 0.180587 172.844 0.0681375 172.657 0.016376C172.463 -0.0224004 172.263 0.00816999 172.09 0.10287L172.042 0.0836505C171.895 0.0371138 171.738 0.0325177 171.589 0.0703648C171.439 0.108212 171.303 0.187049 171.195 0.298281C171.018 0.261965 170.835 0.286705 170.674 0.368557C170.513 0.450409 170.383 0.584669 170.306 0.749968C170.155 0.788418 170.015 0.864356 169.9 0.971007L169.808 0.951787C169.235 0.93577 169.039 1.49958 168.935 1.99291C168.9 2.01563 168.867 2.04023 168.834 2.06659C168.733 2.14947 168.65 2.25362 168.592 2.37193C168.534 2.49024 168.502 2.61992 168.497 2.75212C168.389 2.80768 168.296 2.88875 168.225 2.98853C168.155 3.08831 168.109 3.20387 168.091 3.32554C168.049 3.52562 168.041 3.73129 168.066 3.9342C167.972 4.11245 167.923 4.31175 167.924 4.51402C167.849 4.58101 167.78 4.65384 167.716 4.73185C167.35 5.20276 167.64 5.69289 168.078 5.93635C168.081 5.96725 168.081 5.99836 168.078 6.02925L168.028 6.00683C167.877 5.92873 167.736 5.83189 167.609 5.71851C167.723 5.84978 167.852 5.96697 167.993 6.06769C168.028 6.09652 168.062 6.12215 168.1 6.15739C167.898 6.31665 167.749 6.5345 167.672 6.78206C167.577 7.07849 167.553 7.39376 167.602 7.70145C167.577 7.39711 167.623 7.09103 167.735 6.80769C167.813 6.64379 167.93 6.50192 168.075 6.39444C167.978 6.81483 167.925 7.24422 167.914 7.67582C167.851 7.93423 167.827 8.20126 167.845 8.46707C167.868 8.73029 167.943 8.986 168.067 9.21848C168.19 9.45095 168.359 9.65529 168.563 9.81893C168.378 9.64481 168.228 9.43462 168.124 9.20078C168.019 8.96694 167.962 8.71419 167.955 8.45746C167.959 8.34147 167.971 8.22587 167.99 8.11149C168.045 8.48493 168.186 8.83994 168.401 9.14773C168.616 9.45552 168.9 9.70742 169.228 9.883C169.102 9.71962 168.995 9.56265 168.913 9.4153C169.039 9.49762 169.172 9.56837 169.31 9.62672C169.155 9.55065 169.008 9.45717 168.872 9.34802C168.637 8.9852 168.496 8.56739 168.463 8.13392C168.47 8.08096 168.48 8.02852 168.494 7.97695L168.664 8.20759C168.679 8.40055 168.745 8.58571 168.857 8.74257C168.764 8.59788 168.711 8.43106 168.702 8.25885C168.74 8.3005 168.771 8.34534 168.809 8.38699C168.812 8.45258 168.819 8.51789 168.831 8.5824C168.849 8.73398 168.9 8.87977 168.979 9.00972C169.057 9.13968 169.163 9.25072 169.288 9.33521C169.173 9.24415 169.079 9.12884 169.012 8.99722C168.945 8.8656 168.907 8.7208 168.901 8.57279C168.902 8.54932 168.902 8.52578 168.901 8.50231C169.198 8.87467 169.55 9.19873 169.944 9.46335C170.23 9.60645 170.495 9.78742 170.735 10.0015C170.812 10.06 170.901 10.1015 170.996 10.1235C171.09 10.1456 171.188 10.1477 171.283 10.1297C171.353 10.1822 171.434 10.2193 171.519 10.2386C171.623 10.3443 171.834 10.5077 172.127 10.8088C172.453 11.1101 172.867 11.2937 173.306 11.331C173.872 11.375 174.44 11.3846 175.007 11.3598C175.401 11.3982 175.757 11.6801 176.107 11.3213C176.105 11.6838 175.978 12.034 175.748 12.3112C175.66 12.4329 175.228 12.8366 175.376 13.1089C175.41 13.1956 175.462 13.2741 175.527 13.3395C175.436 13.5199 175.416 13.7285 175.47 13.9235C175.525 14.1185 175.65 14.2853 175.82 14.3903C176.021 14.5081 176.244 14.5803 176.475 14.6019C176.706 14.6235 176.938 14.5939 177.156 14.5152C177.471 14.3646 177.954 14.2493 177.972 13.9161C178.011 13.9234 178.051 13.9195 178.088 13.9048C178.125 13.89 178.157 13.8651 178.18 13.8328C178.317 13.969 178.472 14.0844 178.641 14.1756C178.675 14.2493 178.716 14.323 178.773 14.4191C178.685 14.7935 178.544 15.1529 178.354 15.4858C178.089 16.0048 174.387 21.5564 173.942 22.3092C173.826 22.5046 173.627 22.8377 173.407 23.2222C172.973 23.3599 172.526 23.4512 172.074 23.4944C171.655 23.4464 170.467 23.4784 169.663 23.44C169.439 23.0748 167.873 23.0844 167.628 23.0139C167.236 22.963 166.838 22.9738 166.449 23.046C166.046 23.1581 165.242 22.2387 164.82 22.1298C164.083 21.944 163.326 22.2771 162.614 22.4501C162.299 22.5366 161.959 22.6359 161.638 22.748C162 21.944 162.967 21.4346 162.967 21.4346C164.789 20.2205 163.471 19.5542 163.471 19.5542C163.305 19.5235 163.148 19.4537 163.013 19.3502C162.878 19.2467 162.768 19.1125 162.693 18.9584C162.611 18.2248 161.593 18.3689 161.748 18.1127C161.846 18.0633 161.93 17.9907 161.995 17.9009C162.059 17.8112 162.101 17.7069 162.117 17.5971C162.133 17.4873 162.123 17.3752 162.087 17.2703C162.051 17.1654 161.991 17.0708 161.912 16.9946C161.795 16.8831 161.667 16.7844 161.53 16.6999C161.332 16.5077 161.678 16.213 161.678 16.213C162.23 15.4057 161.439 15.2007 161.439 15.2007L159.996 14.8804C159.088 14.7618 159.066 14.2397 159.066 14.2397C159.068 14.0786 159.018 13.9213 158.924 13.7912L156.486 11.9172C157.714 11.6289 157.623 10.3155 157.623 10.3155C157.412 10.5173 157.059 10.3667 156.775 10.1809C156.432 9.9727 156.46 9.78369 155.931 9.73564C155.446 9.72564 154.968 9.84965 154.548 10.0944L152.093 11.5103L152.638 10.3507L150.748 11.9781L151.198 11.0907C146.22 13.9738 147.697 17.5681 147.697 17.5681C147.222 22.4886 153.94 24.2441 153.94 24.2441C154.469 24.5644 154.831 25.3973 155.077 26.2014C155.017 26.375 154.974 26.5542 154.948 26.7363C154.176 33.2169 156.363 39.0312 158.31 45.0216C158.285 45.5982 157.973 45.5182 157.973 47.264C157.973 49.0099 157.343 48.7825 157.226 49.9613C157.109 51.1402 155.682 52.5017 155.732 53.3121C155.783 54.1226 155.732 57.294 155.966 57.5535C155.591 58.2685 155.431 59.079 155.502 59.8856C155.584 60.8413 155.743 61.7886 155.978 62.7175C155.978 63.1492 156.029 63.5794 156.13 63.9988C156.341 64.8285 156.968 66.0779 157.844 66.4206L149.793 66.5424C149.928 66.3822 150.08 66.2477 150.199 66.0747C151.775 63.8002 152.323 60.2028 152.389 57.3933C154.976 57.3132 154.459 51.2363 154.255 49.3014C153.958 46.4856 153.045 43.5352 151.986 40.9725C151.315 39.3451 150.41 36.6734 148.933 35.5426C148.898 33.8127 148.766 32.0701 148.633 30.3466C148.633 30.2441 148.633 30.1384 148.611 30.0263C148.589 29.9142 148.611 29.8084 148.592 29.7059C148.529 28.6136 148.479 27.5212 148.473 26.4352C148.471 25.9471 148.442 25.4594 148.387 24.9744C148.387 24.9616 148.387 24.9488 148.387 24.936C148.319 23.7813 148.123 22.6381 147.804 21.5275C147.469 20.4242 146.922 19.3996 146.194 18.5131C146.193 18.5101 146.192 18.5068 146.192 18.5035C146.192 18.5002 146.193 18.4969 146.194 18.4939C145.189 17.1036 143.847 16.2034 142.126 16.37C142.126 16.37 142.101 16.37 142.092 16.37C141.78 16.3828 141.471 16.4344 141.172 16.5237C141.172 16.5237 141.172 16.5494 141.172 16.5526C139.483 16.2322 137.863 17.4367 137.003 19.3268C136.079 21.3481 135.9 23.7731 135.607 26.1373C135.611 26.1617 135.611 26.1866 135.607 26.211C135.336 27.928 135.059 29.7348 134.346 31.2532C134.341 31.2676 134.335 31.2816 134.328 31.2948C134.328 31.3173 134.309 31.3365 134.296 31.3589C134.144 31.6659 133.97 31.9614 133.776 32.2431C133.291 32.522 132.832 32.8436 132.402 33.2041C132.383 33.2041 132.352 33.2201 132.333 33.2201C131.425 33.1528 130.19 34.1171 129.743 34.745C128.857 35.9879 129.053 37.423 129.002 38.9094C128.943 40.6649 128.881 42.4193 128.816 44.1727C128.684 47.6805 128.3 51.861 128.145 55.3848C128.082 56.8071 127.978 58.1301 127.83 59.4307C127.698 59.1296 127.572 58.8285 127.455 58.5242C126.614 56.333 126.308 53.972 125.744 51.6912C125.408 50.1452 124.834 48.663 124.043 47.2993C123.926 47.1135 123.756 46.8091 123.557 46.5272C123.212 46.0001 122.737 45.5738 122.18 45.2907C121.043 44.6724 119.94 44.2175 119.946 44.1919C120.107 43.5487 120.356 42.9318 120.687 42.3595C121.868 40.6873 122.577 39.611 122.609 37.5127C122.609 37.4359 122.609 37.3558 122.609 37.2789C122.609 36.9295 122.585 36.5805 122.536 36.2346C122.521 36.0956 122.498 35.9576 122.467 35.8213C122.448 35.7284 122.429 35.6387 122.407 35.549C122.225 34.7686 121.882 34.0362 121.402 33.3995C120.741 32.6224 119.901 32.0246 118.957 31.66C118.928 31.66 118.9 31.6376 118.865 31.628C118.274 31.3462 117.604 31.2893 116.975 31.4678C115.67 31.6088 114.684 31.9644 114.079 33.3354C113.931 33.7417 113.825 34.1625 113.764 34.5912C113.518 35.5202 113.37 36.5613 113.134 37.5768C113.026 37.9957 112.888 38.4058 112.721 38.8037C112.649 38.9384 112.551 39.0566 112.432 39.1509C112.313 39.2452 112.177 39.3135 112.031 39.3515C112.346 39.6719 112.617 39.816 112.976 39.6879C113.044 40.3393 113.004 40.9978 112.856 41.6356C112.805 41.8452 112.718 42.0445 112.601 42.225C112.561 42.3055 112.515 42.3826 112.462 42.4557C112.188 42.2795 112.037 42.2634 112.009 42.4108C111.994 42.3542 111.967 42.3017 111.93 42.257C111.948 42.3228 111.971 42.3871 111.999 42.4492C111.921 42.6863 112.261 43.1252 112.475 43.3206C112.331 43.4584 112.217 43.626 112.141 43.8122C112.066 43.9984 112.03 44.1989 112.037 44.4002C112.035 44.4721 112.051 44.5435 112.081 44.6084C112.277 44.3489 112.434 44.0446 112.774 44.0702C113.105 44.1495 113.392 44.3548 113.578 44.6436C112.94 44.7277 112.316 44.8935 111.719 45.1369C111.306 45.2693 110.941 45.5222 110.669 45.8639C110.397 46.2057 110.229 46.6213 110.187 47.059C109.075 48.4877 109.034 50.9672 108.927 52.6907C108.766 55.1349 108.492 57.5984 107.667 59.9112C107.352 60.7858 106.961 61.6283 106.564 62.474C105.678 64.364 104.736 65.7992 102.95 66.8627C102.836 66.9237 102.731 66.9979 102.634 67.0838C102.458 67.0261 101.957 67.0165 101.916 67.308L88.6816 67.5098L89.6931 69.182H108.284C108.454 69.4479 108.621 69.7138 108.779 69.9316C108.911 70.1372 109.054 70.335 109.207 70.5243C109.629 71.0514 110.185 71.4503 110.814 71.6775C110.845 71.6859 110.875 71.6977 110.903 71.7127C111.382 73.0998 112.097 74.2755 112.377 75.7619C112.418 76.0656 112.478 76.3662 112.557 76.6621C112.336 77.748 112.034 79.2408 112.292 80.2852C112.412 80.7193 112.663 81.1039 113.011 81.3839C113.159 81.5089 113.326 81.6338 113.474 81.7684C113.525 81.8073 113.575 81.849 113.622 81.8933C114.766 82.9088 115.125 85.0006 116.537 85.0391C116.48 85.7278 116.42 86.6408 116.871 87.1598C117.413 87.7748 118.582 87.762 119.278 87.5762C121.04 87.0989 121.276 84.8437 121.09 83.1426C121.09 82.9056 121.09 82.6878 121.09 82.6173C121.09 82.4795 121.172 82.1464 121.172 81.8805C121.295 81.3808 121.449 80.8874 121.566 80.3877C121.704 79.795 121.824 79.1992 121.979 78.6162C122.388 77.9979 122.492 77.0689 122.691 76.3738C122.836 75.8484 122.962 75.3166 123.11 74.7432C123.148 74.583 123.185 74.4229 123.23 74.2723C123.255 74.173 123.286 74.0865 123.315 73.9968C123.314 73.9549 123.306 73.9136 123.289 73.8751C123.283 73.8544 123.276 73.8341 123.267 73.8142L123.362 73.7854C124.071 73.5804 124.698 73.1831 125.451 72.9333C126.051 72.7446 126.691 72.7379 127.294 72.914C127.134 72.3022 126.979 71.6871 126.863 71.056C126.759 70.5243 126.661 69.874 126.582 69.1884H129.743C129.822 69.8676 129.916 70.5114 130.02 71.04C130.146 71.6807 130.291 72.2862 130.452 72.898V72.9365C130.549 73.2824 130.644 73.6284 130.751 73.9744C130.811 74.1826 130.871 74.3876 130.937 74.5958C130.972 74.6952 131.003 74.8009 131.032 74.9162C131.429 76.1976 131.867 77.4629 132.273 78.7603C132.519 80.2948 133.272 81.9221 133.877 83.2195C134.658 84.8821 135.27 86.7209 136.303 88.2105C136.32 88.8129 136.446 89.407 136.675 89.9628C136.568 90.4433 136.413 90.9238 136.316 91.4043C136.171 92.1315 135.793 92.9708 135.727 93.7044C135.711 93.8194 135.72 93.9365 135.755 94.0472C135.651 94.2606 135.561 94.4811 135.487 94.7071C135.465 94.7904 135.443 94.8737 135.427 94.9602C135.376 95.1084 135.343 95.2621 135.326 95.4183C135.273 95.8979 135.325 96.3836 135.478 96.8406C135.818 97.7632 136.779 98.2181 137.639 98.295C138.109 98.338 138.58 98.236 138.992 98.0022C139.403 97.7685 139.736 97.4138 139.946 96.9847C140.4 96.0493 140.302 94.8929 140.311 93.855C140.329 93.7888 140.342 93.7213 140.349 93.6532V93.6339C140.395 93.3396 140.409 93.0409 140.39 92.7434C140.39 92.7434 140.409 92.7434 140.415 92.7434C140.506 92.7857 140.586 92.8507 140.645 92.9324C140.689 93.3713 140.551 93.8005 140.604 94.2522C140.536 94.4711 140.536 94.7061 140.604 94.9249C140.628 94.9708 140.664 95.0087 140.708 95.0338C140.621 95.4324 140.566 95.8373 140.541 96.2448C140.554 96.67 140.65 97.0883 140.825 97.4749C140.852 97.5432 140.884 97.6096 140.919 97.6735C140.973 97.792 141.042 97.9073 141.109 98.0227C141.632 98.8652 142.296 99.0638 143.195 98.9837C145.161 98.7562 145.807 96.9495 145.75 95.0787C146.065 94.7263 145.829 93.7973 145.778 93.3072C145.615 91.8368 145.498 90.7028 144.594 89.7257C144.26 87.7236 143.777 85.8207 143.774 83.7737C143.774 83.7449 143.774 83.7193 143.774 83.6904C143.774 83.5399 143.774 83.3925 143.774 83.242C143.822 81.9606 143.941 80.7945 143.907 79.5932C143.866 78.0203 144.033 76.4923 143.825 74.9258C143.67 73.7501 143.443 72.5584 143.172 71.3828C143.85 70.7037 144.71 70.268 145.4 69.6177C145.674 69.4896 145.945 69.3518 146.216 69.2173H196.935L198.246 65.8729L194.15 65.9369C194.273 65.512 194.365 65.0784 194.424 64.6395C194.604 63.3998 194.528 62.0223 193.217 61.5354C192.042 61.0997 190.599 61.6155 189.467 61.8557C187.679 62.2793 185.826 62.3457 184.013 62.0511C186.168 60.9075 188.336 59.4692 189.37 57.246C190.785 55.5065 190.867 53.184 188.283 51.4445C185.9 49.8428 182.236 50.1087 179.551 50.2048C177.487 50.2721 175.307 50.0158 173.265 50.4034C173.189 50.4034 173.114 50.4386 173.038 50.4547C173.069 49.6858 173.088 48.8786 173.088 48.4781C173.088 47.7221 173.504 47.4594 173.552 46.6746C173.599 45.8897 172.162 40.0467 171.976 39.3067C172.102 39.0538 172.172 38.7761 172.181 38.493C172.181 37.9965 171.551 35.2735 170.996 33.9121C170.747 33.2714 170.303 32.2783 169.843 31.298C170.325 31.298 170.826 31.2628 171.33 31.2244C171.248 30.8496 171.169 30.4748 171.087 30.1032L171.614 30.0647C172.681 29.9961 173.751 29.9961 174.818 30.0647C175.235 30.0697 175.65 30.018 176.053 29.911C176.107 29.911 176.161 29.911 176.214 29.911C176.9 29.7853 177.541 29.4751 178.069 29.0126C178.597 28.55 178.993 27.9521 179.217 27.2809C179.305 27.1368 179.397 26.9862 179.453 26.8837C179.743 26.3647 182.702 19.0993 183.027 18.0326C183.351 16.9658 184.287 14.6722 184.404 14.3262C184.429 14.2589 184.467 14.1372 184.511 14.0058C184.746 14.0441 184.976 14.1119 185.195 14.2077C185.403 14.3536 185.639 14.453 185.888 14.4992L186.039 14.8708C186.455 15.8734 187.221 17.645 187.838 18.449C188.204 18.9231 188.56 19.0577 188.784 19.5414C189.628 21.4026 190.066 23.4496 191.245 25.1538C191.292 25.2098 191.323 25.2782 191.335 25.3513C191.346 25.4243 191.336 25.4991 191.308 25.5671C190.933 26.5922 191.037 27.7903 190.167 28.6456C190.023 28.7856 189.932 28.9715 189.907 29.1721C189.882 29.3728 189.926 29.576 190.031 29.7476C190.143 29.9274 190.304 30.0701 190.494 30.1583C190.685 30.2465 190.896 30.2763 191.103 30.2441C191.521 30.2243 191.93 30.1147 192.304 29.9225C192.678 29.7304 193.007 29.4601 193.271 29.1293C193.536 28.8154 193.849 28.5462 194.197 28.3316C195.01 27.8638 195.635 27.1198 195.962 26.2302C196.179 25.6215 195.82 25.0001 195.647 24.6124C194.957 23.1549 194.352 21.6429 193.69 20.1789C194.497 20.4715 195.252 20.8944 195.927 21.4314C196.542 21.8895 197.244 22.1586 197.682 22.6039C197.903 23.44 198.668 24.2473 198.587 25.6279C198.562 25.8111 198.606 25.9969 198.709 26.1492C198.812 26.3014 198.967 26.4091 199.144 26.4512C199.308 26.4785 199.476 26.4529 199.624 26.3782C199.773 26.3036 199.895 26.1835 199.973 26.0348C200.38 25.538 200.613 24.9186 200.638 24.2729C200.638 22.9915 200.934 21.7325 200.991 20.4544C201.044 18.8494 200.928 18.763 199.431 18.8879ZM167.804 4.76389C167.851 4.7012 167.902 4.64131 167.955 4.5845C167.961 4.76046 167.997 4.93401 168.062 5.09704C168.06 5.29804 168.067 5.49905 168.085 5.69929C167.998 5.66528 167.92 5.61175 167.857 5.54274C167.794 5.47373 167.748 5.39105 167.721 5.30094C167.693 5.21084 167.687 5.11567 167.701 5.02263C167.716 4.92959 167.751 4.84111 167.804 4.76389ZM168.085 4.73506C168.059 4.66245 168.041 4.58728 168.031 4.51081L168.116 4.43393C168.103 4.53644 168.091 4.63575 168.085 4.73506ZM168.126 4.36346C168.091 4.38836 168.057 4.41509 168.025 4.44354C168.019 4.28379 168.046 4.12458 168.103 3.97584C168.114 4.06096 168.128 4.14545 168.148 4.22891C168.141 4.27376 168.135 4.31861 168.126 4.37307V4.36346ZM168.217 3.89896L168.198 3.78043C168.208 3.75842 168.22 3.73703 168.233 3.71636C168.233 3.73238 168.211 3.7548 168.198 3.77082C168.181 3.62506 168.181 3.4777 168.198 3.33195C168.207 3.22001 168.243 3.11208 168.303 3.01768C168.363 2.92328 168.445 2.84529 168.541 2.79056C168.538 2.83749 168.538 2.88459 168.541 2.93152C168.406 3.24368 168.297 3.56742 168.217 3.89896ZM168.929 2.19472C168.85 2.30963 168.779 2.42946 168.715 2.55351C168.734 2.38881 168.804 2.23433 168.913 2.11143L168.948 2.0826L168.929 2.19472ZM169.616 1.40668C169.47 1.53571 169.333 1.67486 169.206 1.82312C169.269 1.41949 169.417 1.04148 169.837 1.01585H169.877C169.77 1.13054 169.681 1.2626 169.616 1.40668ZM169.991 1.10555L170.029 1.05429H170.051L169.991 1.10555ZM170.325 0.884512C170.252 0.929361 170.18 0.974207 170.111 1.02226H170.073C170.148 0.942321 170.238 0.878117 170.338 0.833256C170.334 0.850575 170.33 0.86769 170.325 0.884512ZM170.983 0.564168C170.87 0.609016 170.757 0.663476 170.643 0.721138H170.618C170.665 0.63786 170.732 0.568535 170.813 0.520165C170.895 0.471795 170.987 0.446092 171.081 0.445642C171.047 0.474473 171.021 0.52893 170.983 0.554558V0.564168ZM171.831 0.307891L171.573 0.365556L171.437 0.330317C171.517 0.253946 171.613 0.197867 171.719 0.166684C171.824 0.135502 171.935 0.130104 172.042 0.150925C171.968 0.193616 171.897 0.242925 171.831 0.298281V0.307891ZM172.19 0.247025H172.146L172.206 0.205383L172.272 0.234213L172.19 0.247025ZM172.37 0.247025L172.269 0.189365C172.395 0.120755 172.537 0.0907023 172.679 0.10287C172.833 0.129976 172.975 0.204959 173.085 0.317501C172.853 0.251043 172.612 0.219743 172.37 0.224603V0.247025ZM173.999 0.788408C174.208 0.803773 174.408 0.879344 174.576 1.00625C174.746 1.13681 174.886 1.30421 174.985 1.49637C174.822 1.41794 174.649 1.36192 174.472 1.32979C174.345 1.11732 174.185 0.926963 173.999 0.765986V0.788408ZM174.591 1.50918C174.715 1.52818 174.836 1.56262 174.951 1.6117C174.866 1.6117 174.78 1.62771 174.699 1.64053C174.661 1.57646 174.626 1.53161 174.591 1.48996V1.50918ZM174.907 1.82953C174.976 1.82953 175.045 1.80711 175.118 1.8007C175.14 1.86156 175.159 1.92563 175.178 1.9897C175.08 1.93892 174.987 1.87885 174.9 1.81031L174.907 1.82953ZM175.389 2.0762C175.318 2.05125 175.248 2.02238 175.181 1.9897C175.168 1.92451 175.151 1.86029 175.13 1.7975H175.237C175.298 1.84317 175.355 1.89351 175.408 1.94805L175.524 2.06018L175.389 2.0762ZM175.455 1.88399C175.426 1.84875 175.395 1.81351 175.363 1.78148C175.639 1.76889 175.912 1.83908 176.148 1.98329C175.962 1.98142 175.776 1.99859 175.593 2.03455C175.543 1.94806 175.496 1.8968 175.449 1.84875L175.455 1.88399ZM176.425 2.3613C176.18 2.30684 175.953 2.25238 175.742 2.19472C175.935 2.14617 176.135 2.12568 176.334 2.13386C176.398 2.19521 176.456 2.26281 176.507 2.33567C176.523 2.35489 176.536 2.37732 176.551 2.39974L176.425 2.3613ZM177.667 4.00787L177.651 4.02389V3.98545L177.676 4.00787L177.651 3.98545C177.564 3.6667 177.459 3.35331 177.336 3.04684L177.393 3.07247C177.639 3.22323 177.835 3.44669 177.954 3.71316C177.837 3.77723 177.746 3.87974 177.661 3.97264L177.667 4.00787ZM177.96 3.68753C177.85 3.41179 177.661 3.17616 177.418 3.0116C177.367 2.97757 177.315 2.94656 177.26 2.9187C177.126 2.68317 176.908 2.50809 176.652 2.42857C176.624 2.38372 176.595 2.33567 176.564 2.29403C176.532 2.25238 176.498 2.19152 176.466 2.14667C176.803 2.19009 177.113 2.35765 177.336 2.61758C177.579 2.86104 177.78 3.29351 178.045 3.60424L177.96 3.68753ZM117.996 79.7758C117.868 79.7197 117.738 79.6705 117.605 79.6285V79.6028C117.355 79.1706 117.035 78.784 116.66 78.4592C116.606 78.0379 116.461 77.634 116.234 77.2771C115.989 76.8351 115.844 76.3481 115.639 75.8932C115.624 75.8234 115.612 75.7528 115.604 75.6818C115.571 75.393 115.522 75.1063 115.456 74.8233C115.431 74.4517 115.383 74.0577 115.324 73.6829C115.347 73.5311 115.347 73.3765 115.324 73.2248C115.598 73.2947 115.877 73.3408 116.159 73.3625C116.956 73.433 117.734 73.7149 118.509 73.795C118.528 73.8815 118.544 73.9648 118.563 74.0481C118.751 74.8896 118.856 75.7481 118.878 76.6108C118.878 76.9824 118.683 77.5174 118.683 77.9563C118.399 78.5105 118.267 79.1768 117.996 79.7758ZM139.826 87.6627C139.782 87.5538 139.741 87.4417 139.703 87.3424C139.376 86.3798 139.112 85.3964 138.912 84.3984C138.635 83.0658 138.522 81.6851 138.307 80.3492C139.253 82.8287 140.828 86.1443 140.444 88.9537C140.196 88.5454 139.989 88.1129 139.826 87.6627ZM131.003 60.5231C131.038 60.3533 131.088 60.1835 131.123 60.0138C131.668 57.31 131.804 57.3229 132.068 54.5679C132.131 53.9785 132.383 51.0057 132.525 49.4007C132.789 50.4794 132.952 51.5809 133.014 52.6907C133.019 53.0475 132.997 53.4041 132.947 53.7574C132.525 54.7857 132.415 56.1632 132.169 57.2267C132.018 57.9827 131.807 58.725 131.539 59.4467C131.47 59.6133 131.4 59.7671 131.325 59.9465C131.29 60.0073 131.265 60.081 131.23 60.1419C131.212 60.166 131.196 60.1918 131.183 60.2188L131.003 60.5231ZM152.389 57.3581L152.704 57.2075C152.591 57.2558 152.485 57.3194 152.389 57.3965C152.391 57.3772 152.398 57.3586 152.408 57.3421L152.389 57.3581ZM119.893 44.1343C119.891 44.1427 119.891 44.1514 119.893 44.1599V44.1343Z" fill="#4E1604"/>
</svg>
